M48
;Layer_Color=9474304
;FILE_FORMAT=2:4
INCH,LZ
;TYPE=PLATED
T1F00S00C0.0320
;TYPE=NON_PLATED
T2F00S00C0.0450
%
T01
X0076Y-0134
X0079Y-0071
X0089
X0099
X0109
X0119
X0129
X0145Y-0067
X01213Y-00553
X0104Y-0056
X0094
X0084
X0074
X0064
X0054
X0044
X0039Y-0071
X0049
X0059
X0069
X0029
X0019
X002Y-008
X00256Y-009
X00318Y-01072
X00289Y-00317
X0029Y-0011
X0039
X0049
X0059
X0069
X0079
X0089
X0099
X0109
X0119
X0129
X0145Y-0017
X01423Y-00343
X0135Y-00404
X01237Y-00292
X0104Y-0026
X0094
X0084
X0074
X0064
X0054
X0044
X0019Y-0011
X01307Y-00908
X01241Y-01066
X0149Y-00985
T02
X00062Y-00465
X00064Y-00329
X01562
X0156Y-00464
M30
